<?xml version="1.0" encoding="UTF-8"?>
<svg id="b" data-name="Layer 2" xmlns="http://www.w3.org/2000/svg" width="1331.91" height="305.68" viewBox="0 0 1331.91 305.68">
  <g id="c" data-name="Layer 3">
    <g>
      <g>
        <g>
          <path d="M113.56,297.64c-3.73,0-6.77-3.04-6.77-6.77v-84.07L5.48,79.02c-1.63-2.05-1.93-4.79-.79-7.15s3.48-3.83,6.1-3.83h119.48c2.15,0,4.19,1.04,5.47,2.78l44.1,60.57,44.1-60.56c1.28-1.75,3.32-2.79,5.47-2.79h90.53c2.61,0,4.94,1.46,6.09,3.82,1.14,2.36,.85,5.1-.78,7.15l-101.33,127.79v84.07c0,3.73-3.04,6.77-6.77,6.77H113.56Z" style="fill: #fb3551;"/>
          <path d="M319.93,72.04c2.31,0,3.6,2.68,2.17,4.49l-101.59,128.12c-.39,.49-.6,1.1-.6,1.72v84.5c0,1.53-1.24,2.77-2.77,2.77H113.56c-1.53,0-2.77-1.24-2.77-2.77v-84.5c0-.62-.21-1.23-.6-1.72L8.61,76.53c-1.44-1.81-.15-4.49,2.17-4.49h119.48c.89,0,1.72,.43,2.24,1.14l46.99,64.53h.68l25.58-35.13,21.41-29.4c.52-.71,1.35-1.14,2.24-1.14h90.53m0-8h-90.53c-3.42,0-6.67,1.65-8.69,4.41l-21.42,29.42-19.45,26.72-40.86-56.12c-2.04-2.78-5.29-4.43-8.71-4.43H10.78c-4.17,0-7.89,2.33-9.7,6.09-1.81,3.76-1.32,8.12,1.27,11.38l100.44,126.68v82.68c0,5.94,4.83,10.77,10.77,10.77h103.58c5.94,0,10.77-4.83,10.77-10.77v-82.68l100.46-126.69c2.59-3.28,3.06-7.64,1.25-11.39-1.82-3.75-5.53-6.08-9.69-6.08h0Z" style="fill: #231f20;"/>
        </g>
        <g>
          <path d="M494.63,297.64c-2.83,0-5.38-1.78-6.36-4.43l-10.83-29.58h-75.29l-11.46,29.68c-.99,2.59-3.53,4.33-6.31,4.33h-95.55c-2.31,0-4.43-1.15-5.69-3.09-1.25-1.93-1.44-4.34-.49-6.44l95.87-216.05c1.08-2.44,3.51-4.03,6.19-4.03h132.79c2.68,0,5.11,1.59,6.19,4.04l84.29,189.94,11.59,26.11c.93,2.11,.74,4.51-.52,6.44-1.25,1.93-3.37,3.08-5.67,3.08h-118.75Zm-34.28-80.07l-19.75-53.57-20.56,53.57h40.31Z" style="fill: #fb3551;"/>
          <path d="M517.5,72.04c1.09,0,2.09,.65,2.53,1.65l70.98,159.95,13.31,30,11.59,26.11c.81,1.83-.53,3.89-2.53,3.89h-118.75c-1.16,0-2.2-.72-2.6-1.81l-11.13-30.39c-.4-1.09-1.44-1.81-2.6-1.81h-76.99c-1.15,0-2.17,.7-2.59,1.77l-.86,2.24-10.9,28.23c-.41,1.07-1.44,1.77-2.58,1.77h-95.55c-2.01,0-3.35-2.06-2.53-3.89l95.88-216.06c.44-1,1.43-1.65,2.53-1.65h132.79m-99.24,149.53h43.86c1.92,0,3.26-1.92,2.6-3.72l-6.03-16.36-3.66-9.92-5.29-14.36-8.23-22.32h-1.69l-24.15,62.92c-.7,1.81,.64,3.76,2.59,3.76m99.24-157.53h-132.79c-4.27,0-8.13,2.52-9.85,6.43l-95.87,216.04c-1.49,3.32-1.19,7.15,.8,10.22,1.99,3.08,5.37,4.91,9.04,4.91h95.55c4.43,0,8.47-2.78,10.05-6.91l10.46-27.1h69.75l9.87,26.95c1.55,4.22,5.61,7.06,10.11,7.06h118.75c3.66,0,7.03-1.83,9.02-4.89,2-3.06,2.3-6.89,.82-10.23l-11.59-26.12-13.31-30-70.98-159.95c-1.71-3.88-5.58-6.41-9.84-6.41h0Zm-91.63,149.53l14.67-38.21,1.7,4.62,5.29,14.36,3.66,9.92,3.43,9.31h-28.75Z" style="fill: #231f20;"/>
        </g>
        <g>
          <path d="M827.86,297.64c-3.73,0-6.76-3.04-6.76-6.77v-68.33h-68.45v68.33c0,3.73-3.04,6.77-6.77,6.77h-97.85c-3.73,0-6.77-3.04-6.77-6.77V74.81c0-3.73,3.04-6.77,6.77-6.77h97.85c3.73,0,6.77,3.04,6.77,6.77v64.29h68.45v-60h60v-11.06h44.62c3.73,0,6.76,3.04,6.76,6.77v216.06c0,3.73-3.03,6.77-6.76,6.77h-97.86Z" style="fill: #fb3551;"/>
          <path d="M925.72,72.04c1.53,0,2.76,1.24,2.76,2.77v216.06c0,1.53-1.23,2.77-2.76,2.77h-97.86c-1.52,0-2.76-1.24-2.76-2.77v-69.56c0-1.53-1.24-2.77-2.77-2.77h-70.91c-1.53,0-2.77,1.24-2.77,2.77v69.56c0,1.53-1.24,2.77-2.77,2.77h-97.85c-1.53,0-2.77-1.24-2.77-2.77V74.81c0-1.53,1.24-2.77,2.77-2.77h97.85c1.53,0,2.77,1.24,2.77,2.77v65.52c0,1.53,1.24,2.77,2.77,2.77h70.91c1.53,0,2.77-1.24,2.77-2.77v-57.23h57.23c1.53,0,2.77-1.24,2.77-2.77v-8.29h40.62m0-8h-48.62v11.06h-60v60h-60.45v-60.29c0-5.94-4.83-10.77-10.77-10.77h-97.85c-5.94,0-10.77,4.83-10.77,10.77v216.06c0,5.94,4.83,10.77,10.77,10.77h97.85c5.94,0,10.77-4.83,10.77-10.77v-64.33h60.45v64.33c0,5.94,4.83,10.77,10.76,10.77h97.86c5.93,0,10.76-4.83,10.76-10.77V74.81c0-5.94-4.83-10.77-10.76-10.77h0Z" style="fill: #231f20;"/>
        </g>
        <g>
          <path d="M1112.7,301.68c-37.49,0-68.82-5.87-93.12-17.45-23.38-11.14-40.39-27.58-50.56-48.86-7.42-15.5-11.19-33.63-11.19-53.87,0-29.44,9.59-55.26,27.73-74.66,5.75-6.17,12.46-11.79,19.92-16.68,6.47-4.24,13.63-8.03,21.28-11.25,23.49-9.89,52.4-14.9,85.94-14.9,51,0,90.56,11.28,117.55,33.54,24.63,20.31,37.66,49.34,37.66,83.96,0,15.82-2.37,30.46-7.04,43.5-2.54,7.12-5.8,13.87-9.7,20.06-11.36,18.03-28.38,31.98-50.6,41.47-23.53,10.05-53.09,15.15-87.87,15.15Zm0-159.97c-3.57,0-6.96,.29-10.08,.87-23.15,4.29-28.01,23.89-28.01,39.59,0,28.52,12.1,41.8,38.09,41.8,21.58,0,33.3-8.76,36.89-27.57,.8-4.19,1.21-8.98,1.21-14.23,0-6.16-.71-11.74-2.12-16.58-2.89-9.86-8.71-16.75-17.3-20.47-5.2-2.26-11.49-3.4-18.68-3.4Z" style="fill: #fb3551;"/>
          <path d="M1112.7,68c105.08,0,151.21,49.17,151.21,113.5,0,15.05-2.18,29.23-6.81,42.15-2.42,6.79-5.51,13.23-9.32,19.28-21.09,33.46-63.97,54.75-135.08,54.75-76.02,0-121.01-24.15-140.07-64.04-7.3-15.24-10.8-32.78-10.8-52.14,0-27.69,8.55-52.57,26.65-71.93,5.5-5.9,11.89-11.28,19.19-16.07,6.22-4.08,13.09-7.73,20.64-10.91,22.16-9.33,50.14-14.59,84.39-14.59m0,159.97c23.78,0,36.89-10.21,40.82-30.82,.86-4.49,1.28-9.49,1.28-14.98,0-6.55-.76-12.47-2.28-17.7-3.18-10.87-9.67-18.75-19.55-23.03-5.65-2.45-12.4-3.73-20.27-3.73-3.87,0-7.47,.32-10.81,.94-20.78,3.85-31.28,19.44-31.28,43.52,0,30.98,14.14,45.8,42.09,45.8m0-167.97c-34.07,0-63.51,5.12-87.49,15.22-7.88,3.32-15.25,7.22-21.92,11.59-7.73,5.07-14.68,10.89-20.65,17.3-18.84,20.15-28.8,46.91-28.8,77.38,0,20.84,3.9,39.55,11.58,55.6,10.57,22.12,28.22,39.2,52.45,50.74,24.84,11.84,56.75,17.84,94.84,17.84,35.32,0,65.42-5.21,89.44-15.47,22.97-9.82,40.6-24.29,52.41-43.01,4.06-6.44,7.45-13.46,10.09-20.86,4.83-13.47,7.27-28.55,7.27-44.84,0-35.85-13.52-65.96-39.11-87.05-27.73-22.86-68.14-34.45-120.1-34.45h0Zm0,159.97c-11.82,0-20.22-2.85-25.66-8.72-5.59-6.03-8.43-15.81-8.43-29.08,0-20.62,8.32-32.61,24.74-35.65,2.88-.54,6.03-.81,9.35-.81,6.64,0,12.39,1.03,17.09,3.07,7.56,3.27,12.48,9.14,15.05,17.94,1.3,4.47,1.96,9.67,1.96,15.45,0,5-.38,9.53-1.14,13.48-3.25,17.05-13.11,24.32-32.96,24.32h0Z" style="fill: #231f20;"/>
        </g>
      </g>
      <g>
        <g>
          <path d="M143.56,267.64c-3.73,0-6.77-3.04-6.77-6.77v-84.07L55.71,74.53l-20.23-25.51c-1.63-2.05-1.93-4.79-.79-7.15s3.48-3.83,6.1-3.83h119.48c2.15,0,4.19,1.04,5.47,2.78l44.1,60.57,23.07-31.69,1.2-1.66h8.17l21.84-30h85.83c2.61,0,4.94,1.46,6.09,3.82,1.14,2.36,.85,5.1-.78,7.15l-101.33,127.79v84.07c0,3.73-3.04,6.77-6.77,6.77h-103.58Z" style="fill: #ffb900;"/>
          <path d="M349.93,42.04c2.31,0,3.6,2.68,2.17,4.49l-101.59,128.12c-.39,.49-.6,1.1-.6,1.72v84.5c0,1.53-1.24,2.77-2.77,2.77h-103.58c-1.53,0-2.77-1.24-2.77-2.77v-84.5c0-.62-.21-1.23-.6-1.72L58.84,72.04l-20.23-25.51c-1.44-1.81-.15-4.49,2.17-4.49h119.48c.89,0,1.72,.43,2.24,1.14l43.25,59.4,3.74,5.13h.68l25.58-35.13,.39-.54h8.16l21.84-30h83.79m0-8h-87.86l-2.4,3.29-19.44,26.71h-8.18l-2.39,3.32-.39,.54-19.44,26.69-40.86-56.12c-2.04-2.78-5.29-4.43-8.71-4.43H40.78c-4.17,0-7.89,2.33-9.7,6.09-1.81,3.76-1.32,8.12,1.27,11.38l20.22,25.5,80.22,101.18v82.68c0,5.94,4.83,10.77,10.77,10.77h103.58c5.94,0,10.77-4.83,10.77-10.77v-82.68l100.46-126.69c2.59-3.28,3.06-7.64,1.25-11.39-1.82-3.75-5.53-6.08-9.69-6.08h0Z" style="fill: #231f20;"/>
        </g>
        <g>
          <path d="M524.63,267.64c-2.83,0-5.38-1.78-6.36-4.43l-10.83-29.58h-75.29l-.55,1.44-10.04,26-.86,2.23c-.99,2.59-3.53,4.34-6.31,4.34h-95.55c-2.31,0-4.43-1.15-5.69-3.09-1.25-1.93-1.44-4.34-.49-6.44L408.53,42.07c1.08-2.44,3.51-4.03,6.19-4.03h132.79c2.68,0,5.11,1.59,6.19,4.04l95.87,216.04c1.18,2.67,.53,5.76-1.6,7.72-1.19,1.14-2.84,1.8-4.58,1.8h-118.75Zm-34.28-80.07l-9.08-24.62-10.67-28.95-20.56,53.57h40.31Z" style="fill: #ffb900;"/>
          <path d="M547.5,42.04c1.09,0,2.09,.65,2.53,1.65l84.29,189.95,10.94,24.65,.65,1.46c.51,1.15,.17,2.39-.65,3.14-.48,.46-1.14,.75-1.88,.75h-118.75c-1.16,0-2.2-.72-2.6-1.81l-11.13-30.39c-.4-1.09-1.44-1.81-2.6-1.81h-76.99c-1.15,0-2.17,.7-2.59,1.77l-.86,2.24-10.04,25.99-.86,2.24c-.41,1.07-1.44,1.77-2.58,1.77h-95.55c-2.01,0-3.35-2.06-2.53-3.89l83.3-187.71,12.58-28.35c.44-1,1.43-1.65,2.53-1.65h132.79m-99.24,149.53h43.86c1.92,0,3.26-1.92,2.6-3.72l-9.69-26.28-5.29-14.36-8.23-22.32h-1.69l-20.08,52.32-4.07,10.6c-.7,1.81,.64,3.76,2.59,3.76m99.24-157.53h-132.79c-4.27,0-8.13,2.52-9.85,6.43l-12.57,28.33-83.3,187.71c-1.49,3.32-1.19,7.15,.8,10.22,1.99,3.08,5.37,4.91,9.04,4.91h95.55c4.43,0,8.47-2.78,10.05-6.91l.86-2.23,9.61-24.87h69.75l9.87,26.95c1.55,4.22,5.61,7.06,10.11,7.06h118.75c2.75,0,5.36-1.04,7.36-2.92,3.35-3.12,4.35-8.02,2.49-12.22l-.65-1.47-10.94-24.64-84.29-189.95c-1.71-3.88-5.58-6.41-9.84-6.41h0Zm-91.63,149.53l1.34-3.49,13.32-34.72,1.7,4.62,5.29,14.36,7.09,19.23h-28.75Z" style="fill: #231f20;"/>
        </g>
        <g>
          <path d="M857.86,267.64c-3.73,0-6.76-3.04-6.76-6.77v-68.33h-68.45v68.33c0,3.73-3.04,6.77-6.77,6.77h-97.85c-3.73,0-6.77-3.04-6.77-6.77V44.81c0-3.73,3.04-6.77,6.77-6.77h97.85c3.73,0,6.77,3.04,6.77,6.77V109.1h68.45v-30h30V38.04h74.62c3.73,0,6.76,3.04,6.76,6.77v216.06c0,3.73-3.03,6.77-6.76,6.77h-97.86Z" style="fill: #ffb900;"/>
          <path d="M955.72,42.04c1.53,0,2.76,1.24,2.76,2.77v216.06c0,1.53-1.23,2.77-2.76,2.77h-97.86c-1.52,0-2.76-1.24-2.76-2.77v-69.56c0-1.53-1.24-2.77-2.77-2.77h-70.91c-1.53,0-2.77,1.24-2.77,2.77v69.56c0,1.53-1.24,2.77-2.77,2.77h-97.85c-1.53,0-2.77-1.24-2.77-2.77V44.81c0-1.53,1.24-2.77,2.77-2.77h97.85c1.53,0,2.77,1.24,2.77,2.77V110.33c0,1.53,1.24,2.77,2.77,2.77h70.91c1.53,0,2.77-1.24,2.77-2.77v-27.23h27.23c1.53,0,2.77-1.24,2.77-2.77V42.04h70.62m0-8h-78.62v41.06h-30v30h-60.45V44.81c0-5.94-4.83-10.77-10.77-10.77h-97.85c-5.94,0-10.77,4.83-10.77,10.77v216.06c0,5.94,4.83,10.77,10.77,10.77h97.85c5.94,0,10.77-4.83,10.77-10.77v-64.33h60.45v64.33c0,5.94,4.83,10.77,10.76,10.77h97.86c5.93,0,10.76-4.83,10.76-10.77V44.81c0-5.94-4.83-10.77-10.76-10.77h0Z" style="fill: #231f20;"/>
        </g>
        <g>
          <path d="M1142.7,271.68c-51.57,0-91.06-11.02-117.38-32.74-24.88-20.53-37.49-49.95-37.49-87.44,0-22.78,5.54-43.02,16.47-60.15,7.78-12.22,18.27-22.72,31.18-31.19,26.44-17.36,62.52-26.16,107.23-26.16,51,0,90.56,11.28,117.55,33.54,24.63,20.31,37.66,49.34,37.66,83.96,0,24.53-5.63,45.92-16.75,63.56-7.8,12.35-18.3,22.86-31.21,31.22-26.03,16.85-62.11,25.39-107.26,25.39Zm0-159.97c-3.57,0-6.96,.29-10.08,.87-14.67,2.71-23.69,11.76-26.81,26.88-.79,3.87-1.2,8.15-1.2,12.71,0,28.52,12.1,41.8,38.09,41.8,3.68,0,7.1-.26,10.17-.77,15.22-2.51,23.71-11.02,26.72-26.8,.8-4.19,1.21-8.98,1.21-14.23,0-26.85-12.82-40.46-38.1-40.46Z" style="fill: #ffb900;"/>
          <path d="M1142.7,38c105.08,0,151.21,49.17,151.21,113.5,0,22.95-5.07,43.87-16.13,61.43-7.31,11.58-17.21,21.71-30,30-24.16,15.64-58.58,24.75-105.08,24.75-105.07,0-150.87-46.14-150.87-116.18,0-21.43,5.12-41.19,15.84-58,7.33-11.52,17.28-21.65,30-30,24.45-16.05,59.11-25.5,105.03-25.5m0,159.97c3.89,0,7.5-.27,10.82-.82,17-2.8,26.71-12.76,30-30,.86-4.49,1.28-9.49,1.28-14.98,0-27.95-13.81-44.46-42.1-44.46-3.87,0-7.47,.32-10.81,.94-16.59,3.07-26.62,13.62-30,30-.85,4.14-1.28,8.66-1.28,13.52,0,30.98,14.14,45.8,42.09,45.8m0-167.97c-45.5,0-82.32,9.02-109.42,26.81-13.39,8.79-24.27,19.69-32.36,32.39-11.34,17.78-17.09,38.74-17.09,62.29,0,18.78,3.17,35.87,9.42,50.79,6.52,15.58,16.46,28.95,29.52,39.73,27.06,22.33,67.41,33.66,119.93,33.66,45.92,0,82.74-8.76,109.43-26.03,13.41-8.69,24.31-19.6,32.42-32.45,11.52-18.3,17.36-40.4,17.36-65.7,0-35.85-13.52-65.96-39.11-87.05-27.73-22.86-68.14-34.45-120.1-34.45h0Zm0,159.97c-11.82,0-20.22-2.85-25.66-8.72-5.59-6.03-8.43-15.81-8.43-29.08,0-4.29,.38-8.3,1.12-11.91,2.8-13.55,10.52-21.32,23.62-23.74,2.88-.54,6.03-.81,9.35-.81,22.95,0,34.1,11.93,34.1,36.46,0,5-.38,9.53-1.14,13.48-2.69,14.1-9.92,21.38-23.44,23.61-2.86,.47-6.06,.71-9.52,.71h0Z" style="fill: #231f20;"/>
        </g>
      </g>
      <g>
        <g>
          <path d="M173.56,237.64c-3.73,0-6.77-3.04-6.77-6.77v-84.07l-57.3-72.28-23.78-30-20.23-25.51c-1.63-2.05-1.93-4.79-.79-7.15s3.48-3.83,6.1-3.83h119.48c2.15,0,4.19,1.04,5.47,2.78l44.1,60.57,23.08-31.7,21.02-28.86c1.28-1.75,3.32-2.79,5.47-2.79h90.53c2.61,0,4.94,1.46,6.09,3.82,1.14,2.36,.85,5.1-.78,7.15l-101.33,127.79v84.07c0,3.73-3.04,6.77-6.77,6.77h-103.58Z" style="fill: #fff;"/>
          <path d="M379.93,12.04c2.31,0,3.6,2.68,2.17,4.49l-101.59,128.12c-.39,.49-.6,1.1-.6,1.72v84.5c0,1.53-1.24,2.77-2.77,2.77h-103.58c-1.53,0-2.77-1.24-2.77-2.77v-84.5c0-.62-.21-1.23-.6-1.72l-57.57-72.61-23.78-30-20.23-25.51c-1.44-1.81-.15-4.49,2.17-4.49h119.48c.89,0,1.72,.43,2.24,1.14l42.86,58.86,.39,.54,3.74,5.13h.68l4.13-5.67,21.84-30,21.02-28.86c.52-.71,1.35-1.14,2.24-1.14h90.53m0-8h-90.53c-3.42,0-6.67,1.65-8.69,4.41l-21.03,28.88-19.84,27.26L198.97,8.47c-2.04-2.78-5.29-4.43-8.71-4.43H70.78c-4.17,0-7.89,2.33-9.7,6.09-1.81,3.76-1.32,8.12,1.27,11.38l20.22,25.5,23.78,30,56.44,71.18v82.68c0,5.94,4.83,10.77,10.77,10.77h103.58c5.94,0,10.77-4.83,10.77-10.77v-82.68L388.37,21.5c2.59-3.28,3.06-7.64,1.25-11.39-1.82-3.75-5.53-6.08-9.69-6.08h0Z" style="fill: #231f20;"/>
        </g>
        <g>
          <path d="M554.63,237.64c-2.83,0-5.38-1.78-6.36-4.43l-10.83-29.58h-75.29l-7.48,19.38-3.12,8.06-.86,2.23c-.99,2.59-3.53,4.34-6.31,4.34h-95.55c-2.31,0-4.43-1.15-5.69-3.09-1.25-1.93-1.44-4.34-.49-6.44L438.53,12.07c1.08-2.44,3.51-4.03,6.19-4.03h132.79c2.68,0,5.11,1.59,6.19,4.04l95.87,216.04c1.18,2.67,.54,5.76-1.6,7.72-1.19,1.14-2.84,1.8-4.58,1.8h-118.75Zm-34.28-80.07l-19.75-53.57-20.56,53.57h40.31Z" style="fill: #fff;"/>
          <path d="M577.5,12.04c1.09,0,2.09,.65,2.53,1.65l65.23,146.99,30,67.61,.65,1.46c.51,1.15,.17,2.39-.65,3.14-.48,.46-1.14,.75-1.88,.75h-118.75c-1.16,0-2.2-.72-2.6-1.81l-11.13-30.39c-.4-1.09-1.44-1.81-2.6-1.81h-76.99c-1.15,0-2.17,.7-2.59,1.77l-.03,.09-7.75,20.08-3.12,8.06-.86,2.24c-.41,1.07-1.44,1.77-2.58,1.77h-95.55c-2.01,0-3.35-2.06-2.53-3.89l69.99-157.71,13.31-30,12.58-28.35c.44-1,1.43-1.65,2.53-1.65h132.79m-99.24,149.53h43.86c1.92,0,3.26-1.92,2.6-3.72l-23.21-62.96h-1.69l-20.08,52.32-4.07,10.6c-.7,1.81,.64,3.76,2.59,3.76M577.5,4.04h-132.79c-4.27,0-8.13,2.52-9.85,6.43l-12.57,28.33-13.31,30-69.99,157.71c-1.49,3.32-1.19,7.15,.8,10.22,1.99,3.08,5.37,4.91,9.04,4.91h95.55c4.43,0,8.47-2.78,10.05-6.91l.86-2.23,3.11-8.04,6.49-16.83h69.75l9.87,26.95c1.55,4.22,5.61,7.06,10.11,7.06h118.75c2.75,0,5.36-1.04,7.36-2.92,3.35-3.12,4.35-8.02,2.49-12.22l-.65-1.47-30-67.6L587.35,10.45c-1.71-3.88-5.58-6.41-9.84-6.41h0Zm-91.63,149.53l1.34-3.49,13.32-34.71,14.08,38.21h-28.75Z" style="fill: #231f20;"/>
        </g>
        <g>
          <path d="M887.86,237.64c-3.73,0-6.76-3.04-6.76-6.77v-68.33h-68.45v68.33c0,3.73-3.04,6.77-6.77,6.77h-97.85c-3.73,0-6.77-3.04-6.77-6.77V14.81c0-3.73,3.04-6.77,6.77-6.77h97.85c3.73,0,6.77,3.04,6.77,6.77V79.1h68.45V14.81c0-3.73,3.03-6.77,6.76-6.77h97.86c3.73,0,6.76,3.04,6.76,6.77V230.87c0,3.73-3.03,6.77-6.76,6.77h-97.86Z" style="fill: #fff;"/>
          <path d="M985.72,12.04c1.53,0,2.76,1.24,2.76,2.77V230.87c0,1.53-1.23,2.77-2.76,2.77h-97.86c-1.52,0-2.76-1.24-2.76-2.77v-69.56c0-1.53-1.24-2.77-2.77-2.77h-70.91c-1.53,0-2.77,1.24-2.77,2.77v69.56c0,1.53-1.24,2.77-2.77,2.77h-97.85c-1.53,0-2.77-1.24-2.77-2.77V14.81c0-1.53,1.24-2.77,2.77-2.77h97.85c1.53,0,2.77,1.24,2.77,2.77V80.33c0,1.53,1.24,2.77,2.77,2.77h70.91c1.53,0,2.77-1.24,2.77-2.77V14.81c0-1.53,1.24-2.77,2.76-2.77h97.86m0-8h-97.86c-5.93,0-10.76,4.83-10.76,10.77v60.29h-60.45V14.81c0-5.94-4.83-10.77-10.77-10.77h-97.85c-5.94,0-10.77,4.83-10.77,10.77V230.87c0,5.94,4.83,10.77,10.77,10.77h97.85c5.94,0,10.77-4.83,10.77-10.77v-64.33h60.45v64.33c0,5.94,4.83,10.77,10.76,10.77h97.86c5.93,0,10.76-4.83,10.76-10.77V14.81c0-5.94-4.83-10.77-10.76-10.77h0Z" style="fill: #231f20;"/>
        </g>
        <g>
          <path d="M1172.7,241.68c-51.57,0-91.06-11.02-117.38-32.74-24.88-20.53-37.49-49.95-37.49-87.44,0-14.4,2.26-27.95,6.72-40.27,2.52-7.02,5.81-13.71,9.75-19.88,23.89-37.51,71.75-57.35,138.4-57.35,51,0,90.56,11.28,117.55,33.54,24.63,20.31,37.66,49.34,37.66,83.96,0,41.67-16.58,74.45-47.95,94.79-6.48,4.19-13.66,7.91-21.34,11.06-23.2,9.51-52.11,14.33-85.92,14.33Zm0-159.97c-20.68,0-33.09,9.34-36.89,27.75-.79,3.87-1.2,8.15-1.2,12.71,0,6.9,.74,13.02,2.21,18.18,2.89,10.13,8.52,16.82,17.24,20.43,5.11,2.12,11.38,3.2,18.65,3.2,3.68,0,7.1-.26,10.17-.77,19.06-3.14,27.93-16.18,27.93-41.03,0-26.85-12.82-40.46-38.1-40.46Z" style="fill: #fff;"/>
          <path d="M1172.7,8c105.08,0,151.21,49.17,151.21,113.5,0,38.09-13.95,70.57-46.13,91.43-6.21,4.01-13.09,7.6-20.68,10.72-21.96,9-49.84,14.03-84.4,14.03-105.07,0-150.87-46.14-150.87-116.18,0-13.78,2.12-26.86,6.48-38.91,2.41-6.7,5.52-13.08,9.36-19.09,21.42-33.64,65.2-55.5,135.03-55.5m0,159.97c3.89,0,7.5-.27,10.82-.82,21.44-3.53,31.28-18.45,31.28-44.98,0-27.95-13.81-44.46-42.1-44.46-23.09,0-36.75,11.26-40.81,30.94-.85,4.14-1.28,8.66-1.28,13.52,0,7.32,.79,13.74,2.36,19.27,3.23,11.34,9.76,18.97,19.55,23.03,5.64,2.34,12.37,3.5,20.18,3.5m0-167.97c-86.02,0-124.58,32.2-141.78,59.2-4.1,6.42-7.51,13.38-10.14,20.68-4.61,12.74-6.95,26.75-6.95,41.62,0,18.78,3.17,35.87,9.42,50.79,6.52,15.58,16.46,28.95,29.52,39.73,27.06,22.33,67.41,33.66,119.93,33.66,34.33,0,63.75-4.92,87.43-14.63,7.91-3.25,15.3-7.09,21.99-11.4,16.83-10.91,29.61-25.2,37.99-42.48,7.83-16.15,11.8-34.88,11.8-55.67,0-35.85-13.52-65.96-39.11-87.05-27.73-22.86-68.14-34.45-120.1-34.45h0Zm0,159.97c-6.74,0-12.49-.97-17.11-2.89-7.51-3.11-12.39-8.95-14.92-17.83-1.36-4.8-2.05-10.55-2.05-17.08,0-4.29,.38-8.3,1.12-11.91,3.41-16.52,14.19-24.55,32.97-24.55,22.95,0,34.1,11.93,34.1,36.46,0,11.65-2.08,20.6-6.2,26.59-3.89,5.67-9.9,9.1-18.38,10.5-2.86,.47-6.06,.71-9.52,.71h0Z" style="fill: #231f20;"/>
        </g>
      </g>
    </g>
  </g>
</svg>